<?xml version="1.0" standalone="no"?>
<!DOCTYPE svg PUBLIC "-//W3C//DTD SVG 20010904//EN"
 "http://www.w3.org/TR/2001/REC-SVG-20010904/DTD/svg10.dtd">
<svg version="1.0" xmlns="http://www.w3.org/2000/svg"
 width="700.000000pt" height="700.000000pt" viewBox="0 0 700.000000 700.000000"
 preserveAspectRatio="xMidYMid meet">
<metadata>
Created by potrace 1.14, written by Peter Selinger 2001-2017
</metadata>
<g transform="translate(0.000000,700.000000) scale(0.100000,-0.100000)"
fill="#000000" stroke="none">
<path d="M1485 6120 c-60 -13 -94 -43 -350 -299 l-260 -261 -45 44 c-63 62
-104 80 -176 80 -155 0 -259 -156 -199 -300 18 -44 246 -280 309 -321 22 -14
59 -27 90 -30 101 -10 114 0 509 395 374 374 387 391 387 476 0 137 -132 245
-265 216z"/>
<path d="M2353 5680 c-101 -22 -168 -116 -161 -226 5 -74 37 -130 100 -171
l42 -28 2015 -3 c1569 -2 2026 0 2061 10 114 31 184 178 136 289 -20 47 -70
97 -119 119 -36 16 -166 17 -2040 17 -1101 0 -2017 -4 -2034 -7z"/>
<path d="M1454 4359 c-41 -16 -92 -62 -314 -284 l-266 -265 -39 41 c-83 85
-178 107 -271 63 -80 -38 -124 -107 -124 -195 0 -79 22 -114 158 -252 147
-150 182 -174 255 -183 102 -12 113 -4 514 399 382 385 383 386 383 480 0 39
-29 110 -58 143 -52 60 -158 83 -238 53z"/>
<path d="M2348 3929 c-41 -11 -91 -44 -114 -76 -93 -126 -31 -306 117 -343 31
-8 624 -10 2054 -8 l2010 3 41 27 c148 96 138 300 -18 385 -31 17 -126 18
-2048 19 -1108 0 -2027 -3 -2042 -7z"/>
<path d="M1480 2620 c-57 -16 -96 -50 -345 -299 l-260 -261 -45 45 c-61 60
-121 85 -188 80 -122 -10 -208 -106 -203 -228 2 -69 35 -117 168 -248 170
-168 180 -174 268 -174 58 1 77 5 110 27 22 14 196 183 387 375 242 244 351
360 362 387 43 104 -3 224 -105 276 -41 21 -111 30 -149 20z"/>
<path d="M2337 2175 c-36 -12 -60 -28 -98 -65 -30 -29 -52 -106 -47 -165 6
-72 46 -130 113 -167 l50 -27 2005 -1 c1440 0 2016 3 2045 11 81 23 136 86
153 176 14 82 -20 158 -99 219 -42 32 -105 33 -2094 33 -1629 -1 -1997 -3
-2028 -14z"/>
</g>
</svg>
